<?xml version="1.0" standalone="no"?>
<!DOCTYPE svg PUBLIC "-//W3C//DTD SVG 20010904//EN"
 "http://www.w3.org/TR/2001/REC-SVG-20010904/DTD/svg10.dtd">
<svg version="1.0" xmlns="http://www.w3.org/2000/svg"
 width="580.000000pt" height="580.000000pt" viewBox="0 0 580.000000 580.000000"
 preserveAspectRatio="xMidYMid meet">

<g transform="translate(0.000000,580.000000) scale(0.100000,-0.100000)"
fill="#000000" stroke="none">
<path d="M2789 5509 c-393 -32 -636 -223 -672 -528 l-12 -94 -42 -18 c-94 -40
-177 -151 -171 -226 4 -51 33 -64 158 -70 91 -5 99 -7 109 -30 16 -35 14 -40
-17 -35 -23 3 -35 -3 -61 -33 l-32 -37 -35 21 c-39 23 -142 29 -161 10 -8 -8
-22 -5 -49 9 -78 40 -181 65 -251 60 -87 -5 -97 -18 -88 -111 l6 -69 -54 -57
c-97 -102 -98 -180 -5 -291 52 -62 55 -74 33 -104 -19 -25 -19 -70 0 -90 8 -8
40 -20 71 -26 63 -13 168 -3 246 25 57 20 58 19 58 -12 0 -72 117 -488 160
-574 11 -21 29 -41 41 -44 18 -6 93 -1 153 11 11 2 30 -6 43 -18 22 -20 26
-21 56 -8 18 7 58 15 91 16 32 1 63 7 69 13 24 24 43 9 78 -67 27 -58 37 -96
42 -153 4 -42 11 -89 17 -103 18 -48 12 -200 -10 -267 -19 -55 -19 -63 -6 -84
8 -12 29 -28 46 -35 31 -13 32 -14 27 -69 -3 -31 -14 -112 -25 -181 -12 -69
-29 -226 -38 -350 -15 -196 -15 -250 -4 -425 10 -155 10 -237 1 -365 -6 -91
-11 -178 -11 -192 0 -19 -8 -31 -27 -40 -30 -15 -33 -32 -21 -116 l6 -43 -50
-28 c-28 -16 -71 -32 -97 -36 -115 -16 -125 -27 -118 -129 5 -68 18 -83 107
-117 69 -26 120 -22 215 16 54 23 83 28 128 26 47 -2 66 2 102 23 24 15 46 34
50 45 3 10 4 56 3 102 -1 46 3 105 9 132 9 40 8 52 -8 82 -22 41 -16 86 28
188 45 106 51 138 42 197 -6 37 -4 87 6 159 16 115 63 387 71 411 3 8 22 -30
43 -85 21 -55 59 -152 84 -214 26 -63 47 -129 47 -146 0 -19 12 -50 30 -76 25
-37 30 -54 30 -106 0 -71 10 -124 51 -275 29 -103 29 -107 13 -142 -17 -34
-16 -37 2 -78 10 -23 30 -55 42 -70 20 -24 23 -35 17 -70 -4 -24 -16 -57 -26
-74 -22 -37 -24 -84 -5 -139 19 -53 41 -65 128 -72 58 -4 85 -1 132 16 32 11
61 23 64 26 16 15 7 136 -16 215 -19 68 -23 97 -17 147 5 46 3 67 -9 85 -11
18 -17 83 -25 283 -9 243 -12 265 -36 330 -23 62 -28 97 -41 295 -8 124 -21
284 -29 357 -23 200 -37 178 113 180 158 3 222 18 240 55 7 15 18 75 24 133
11 99 14 108 38 120 53 27 55 42 54 379 0 237 -4 338 -17 424 -21 142 -31 163
-84 181 -34 12 -43 21 -52 52 -13 43 -63 96 -100 104 -16 4 -32 18 -42 37 -8
18 -31 40 -50 49 -33 18 -166 41 -221 40 -28 0 -28 0 -11 25 20 31 100 87 112
79 5 -3 12 -19 16 -35 4 -17 10 -30 15 -30 9 0 50 102 50 125 0 27 16 23 44
-11 15 -19 31 -32 37 -29 5 4 9 35 9 71 0 41 12 111 35 196 50 192 62 311 41
413 -11 55 -17 145 -20 285 -4 261 -13 296 -105 414 -87 111 -223 196 -377
235 -70 18 -280 43 -324 40 -8 -1 -58 -5 -111 -10z m-416 -776 c3 -43 10 -94
16 -114 17 -54 81 -154 136 -211 42 -43 46 -50 25 -45 -14 4 -41 10 -62 13
-30 5 -40 14 -62 54 -29 52 -35 55 -141 66 -38 4 -73 11 -76 16 -19 29 14 168
57 248 25 46 30 50 64 50 l37 0 6 -77z m945 -180 c29 -65 31 -76 37 -248 8
-194 11 -200 55 -100 22 50 82 105 115 105 14 0 39 -13 57 -29 33 -29 33 -31
33 -118 0 -76 -4 -95 -28 -143 -42 -85 -119 -132 -156 -97 -11 10 -13 9 -8 -6
9 -23 -30 -99 -78 -154 -54 -63 -257 -170 -355 -189 -107 -19 -231 -18 -275 3
-37 18 -52 46 -80 158 -24 96 -25 95 48 95 58 0 103 -8 152 -25 20 -7 20 -7 0
6 -28 18 -122 39 -176 39 -41 0 -48 3 -53 24 -9 38 5 149 17 137 22 -22 26
-10 8 22 -13 24 -17 47 -14 87 2 30 0 91 -5 135 -5 44 -9 81 -8 82 1 1 30 -12
64 -29 37 -19 66 -28 72 -22 4 5 5 40 1 79 -8 70 -5 175 5 185 8 7 51 -46 75
-92 11 -21 24 -38 29 -38 14 0 35 37 56 96 l17 50 111 13 c61 7 138 18 171 25
33 7 65 14 71 15 6 0 25 -29 42 -66z m35 30 c-3 -7 -6 -13 -8 -13 -2 0 -5 6
-8 13 -3 8 1 14 8 14 7 0 11 -6 8 -14z m-516 -85 c-3 -8 -6 -5 -6 6 -1 11 2
17 5 13 3 -3 4 -12 1 -19z m31 -3 c-3 -3 -9 2 -12 12 -6 14 -5 15 5 6 7 -7 10
-15 7 -18z m839 -7 c-3 -7 -5 -2 -5 12 0 14 2 19 5 13 2 -7 2 -19 0 -25z
m-1173 -4 c3 -8 2 -12 -4 -9 -6 3 -10 10 -10 16 0 14 7 11 14 -7z m-414 2 c0
-2 -8 -10 -17 -17 -16 -13 -17 -12 -4 4 13 16 21 21 21 13z m-111 -37 c18 -8
30 -20 29 -29 -4 -19 -60 -25 -89 -10 -15 8 -19 9 -15 1 12 -18 -5 -12 -41 15
-18 14 -31 28 -29 32 7 12 112 6 145 -9z m-148 -24 c40 -26 62 -45 89 -80 8
-11 -5 -4 -30 15 -25 19 -46 38 -48 43 -2 4 -9 7 -16 7 -7 0 -21 9 -31 20 -24
27 -13 25 36 -5z m210 2 c-10 -9 -11 -8 -5 6 3 10 9 15 12 12 3 -3 0 -11 -7
-18z m499 -7 c-18 -12 -30 -13 -30 -2 0 4 10 9 22 9 18 2 20 0 8 -7z m140 -40
c0 -5 -2 -10 -4 -10 -3 0 -8 5 -11 10 -3 6 -1 10 4 10 6 0 11 -4 11 -10z
m-202 -23 c6 0 12 -4 12 -9 0 -9 -74 0 -105 14 -13 5 -1 6 30 2 28 -4 56 -7
63 -7z m152 3 c0 -5 -2 -10 -4 -10 -3 0 -8 5 -11 10 -3 6 -1 10 4 10 6 0 11
-4 11 -10z m-600 -36 c90 -76 108 -239 36 -337 -23 -32 -79 -67 -106 -67 -17
0 -15 6 13 62 27 52 33 74 35 149 4 89 2 98 -56 212 -10 19 50 4 78 -19z m510
-29 c0 -28 -4 -35 -19 -35 -10 0 -21 7 -24 15 -7 18 9 30 17 13 3 -7 4 -1 1
15 -4 20 -1 27 10 27 11 0 15 -10 15 -35z m-863 3 c33 -31 32 -96 -2 -136 -47
-56 -131 -51 -155 9 -16 37 -7 71 31 114 38 43 89 48 126 13z m593 -2 c33 -14
80 -108 80 -158 0 -21 -4 -38 -10 -38 -5 0 -10 11 -10 24 0 35 -27 40 -56 11
-27 -27 -33 -85 -13 -129 18 -39 -10 -76 -57 -76 l-35 0 18 28 c30 43 41 76
48 139 8 69 -6 132 -41 186 l-25 38 38 -7 c21 -3 49 -11 63 -18z m1095 -65 c3
-5 1 -12 -5 -16 -5 -3 -10 1 -10 9 0 18 6 21 15 7z m-1042 -133 c4 -24 18 -65
32 -92 18 -36 25 -65 25 -106 0 -50 8 -73 59 -176 35 -72 89 -160 137 -223 43
-57 90 -118 103 -135 12 -17 32 -50 42 -73 11 -24 22 -43 26 -43 3 0 3 6 0 13
-20 53 -20 53 38 72 l54 19 25 -23 c37 -35 55 -80 62 -158 l7 -70 -44 -16
c-311 -113 -278 -108 -327 -49 -51 60 -128 215 -203 406 -85 215 -109 272
-123 291 -6 9 -57 31 -111 49 -110 36 -164 61 -182 85 -20 27 -15 36 23 37 26
1 34 -2 30 -13 -5 -11 -2 -11 16 2 16 10 44 15 93 14 53 -1 63 -3 40 -9 -28
-7 -27 -8 13 -9 43 -1 102 24 102 42 0 5 7 4 15 -3 13 -10 15 -9 15 12 0 14
-7 47 -15 74 -14 48 -12 87 8 112 19 24 34 12 40 -30z m-399 -226 c4 -10 20
-28 36 -40 18 -14 30 -32 30 -46 0 -27 32 -123 51 -154 7 -11 34 -30 60 -43
38 -17 51 -30 64 -61 8 -21 15 -48 16 -61 1 -21 1 -21 8 3 l7 24 22 -30 c37
-54 48 -115 32 -181 l-15 -58 -65 -11 c-36 -7 -92 -12 -126 -13 l-61 -1 -21
48 c-53 118 -143 426 -158 540 -5 41 -4 52 7 53 8 0 30 11 49 24 43 29 57 31
64 7z m611 -34 c3 -13 12 -56 20 -95 8 -40 22 -89 30 -110 8 -20 13 -39 10
-42 -4 -3 -27 6 -52 19 -41 22 -50 34 -94 124 -27 54 -49 105 -49 113 0 9 17
13 65 13 59 0 65 -2 70 -22z m-465 -100 c7 -24 21 -61 32 -83 l21 -40 -23 20
c-24 22 -36 46 -49 106 -12 53 3 50 19 -3z m110 13 c39 -14 49 -24 72 -71 15
-30 27 -59 27 -63 1 -5 -17 -6 -39 -2 -27 4 -46 3 -55 -5 -8 -7 -22 -10 -30
-6 -15 5 -62 98 -80 155 -7 22 -5 23 27 16 18 -4 53 -15 78 -24z m1210 -40
c14 -27 13 -29 -19 -36 -16 -3 -69 -29 -117 -57 -173 -99 -231 -122 -311 -123
-55 0 -76 4 -90 17 -9 10 -14 20 -10 24 3 4 45 13 93 20 75 12 107 25 240 94
85 44 165 80 179 80 14 0 29 -8 35 -19z m100 -14 c0 -4 12 -4 26 -1 20 5 25 4
19 -6 -5 -9 -2 -10 15 -5 15 5 20 4 16 -4 -4 -6 -2 -11 3 -11 6 0 11 -4 11 -9
0 -6 -16 -3 -35 5 -19 8 -35 12 -35 9 0 -8 53 -28 73 -27 9 0 24 -12 33 -30 9
-16 12 -28 7 -25 -4 3 -14 -1 -21 -9 -7 -8 -9 -14 -5 -14 4 0 2 -4 -5 -8 -16
-11 -72 -3 -72 9 0 6 -7 26 -17 47 -9 20 -15 40 -15 45 1 4 -3 7 -9 7 -5 0 -7
5 -3 12 5 8 2 9 -9 5 -10 -3 -17 -2 -17 3 0 5 -10 11 -22 13 -13 3 -4 4 19 3
24 0 43 -4 43 -9z m-50 -27 c12 -8 11 -10 -7 -10 -13 0 -23 5 -23 10 0 13 11
13 30 0z m14 -35 c15 -3 26 -8 23 -11 -7 -8 22 -77 37 -86 13 -9 108 -11 128
-3 8 3 13 18 12 35 -1 23 1 27 15 23 75 -27 106 -146 133 -518 14 -187 16
-660 4 -708 -3 -15 -12 -27 -19 -25 -7 1 -38 -6 -69 -15 -49 -15 -142 -18
-152 -5 -4 4 -30 806 -31 925 0 44 -3 79 -7 76 -7 -4 -10 16 -14 122 -2 51
-30 121 -57 140 -11 8 -17 20 -14 29 4 10 1 13 -7 10 -7 -3 -19 2 -26 11 -11
13 -10 15 1 11 8 -2 27 -7 43 -11z m-1192 -35 c21 0 53 -56 38 -65 -14 -9 -98
26 -105 43 -8 21 5 34 29 28 11 -3 29 -6 38 -6z m1155 -11 c69 -43 93 -158 58
-275 -8 -26 -11 -51 -6 -54 11 -6 -2 -162 -30 -375 -21 -163 -35 -352 -20
-285 l7 35 7 -27 c17 -71 17 -76 -6 -91 -21 -14 -23 -13 -35 12 -42 87 -102
253 -102 281 0 19 -14 97 -32 175 -17 78 -29 149 -25 158 6 15 10 14 43 -8 20
-14 42 -25 48 -25 6 0 2 6 -9 12 -11 6 -28 18 -38 26 -16 14 -14 17 31 43 26
15 55 35 62 45 15 18 14 18 -10 1 -30 -22 -224 -117 -228 -112 -2 2 1 20 7 42
24 86 1 172 -65 240 l-43 45 100 46 c54 25 99 51 99 57 0 10 42 33 90 49 32
10 64 5 97 -15z m-803 -30 c-2 -4 -15 -9 -29 -11 -18 -4 -30 1 -40 16 -23 32
-18 35 29 18 25 -9 43 -19 40 -23z m11 -26 c-4 -10 -10 -26 -12 -35 -5 -16 -7
-15 -23 5 -18 21 -18 22 3 34 31 17 40 16 32 -4z m575 13 c0 -2 -9 -6 -20 -9
-11 -3 -18 -1 -14 4 5 9 34 13 34 5z m-917 -23 c20 -3 37 -11 37 -17 0 -6 24
-68 54 -138 l53 -127 -22 -21 c-26 -25 -77 -28 -68 -4 4 12 -11 7 -56 -16 -52
-28 -64 -30 -77 -19 -15 12 -14 14 7 19 32 8 52 52 57 127 5 71 -22 142 -64
170 -37 24 -32 47 9 38 17 -3 49 -9 70 -12z m422 5 c50 -13 50 -13 32 -82
l-13 -48 -27 51 c-27 48 -47 72 -47 54 0 -5 7 -19 16 -31 16 -23 12 -42 -9
-42 -25 0 -39 39 -27 76 13 38 13 38 75 22z m400 -18 c-10 -16 -65 -42 -65
-31 0 6 12 17 28 25 32 18 46 20 37 6z m-280 -30 c1 -14 4 -35 8 -47 7 -18 3
-23 -28 -33 -19 -6 -35 -16 -35 -21 0 -5 -4 -9 -10 -9 -13 0 -13 69 1 109 9
26 16 32 37 29 19 -2 26 -9 27 -28z m192 -5 c-2 -5 -19 -12 -38 -16 -19 -3
-44 -11 -56 -17 -29 -16 -29 -16 -52 16 l-20 28 85 0 c51 -1 83 -5 81 -11z
m-137 -57 c0 -5 -5 -8 -10 -8 -9 0 -30 41 -30 58 1 9 39 -41 40 -50z m133 18
c100 -43 145 -177 102 -306 -18 -55 -18 -54 -59 -64 -23 -6 -27 -4 -23 8 9 23
0 20 -42 -13 -66 -51 -76 -54 -108 -27 -22 19 -25 26 -13 30 75 27 70 21 70
81 0 86 -18 142 -60 186 -34 36 -80 53 -80 29 0 -5 -7 -10 -17 -10 -33 0 17
38 60 45 23 4 60 18 82 31 47 28 46 28 88 10z m812 -6 c-3 -5 0 -7 8 -4 11 4
18 -9 27 -47 10 -40 10 -54 1 -57 -6 -2 -10 -13 -10 -25 1 -17 2 -18 6 -4 19
74 38 -127 42 -445 2 -260 -3 -310 -32 -324 l-22 -10 -2 275 c-1 151 -6 304
-12 340 -6 37 -13 100 -16 141 -3 41 -10 92 -16 113 -11 41 -6 57 17 57 8 0
12 -4 9 -10z m-1100 -60 c18 -34 18 -40 5 -40 -14 0 -43 48 -35 60 9 15 13 13
30 -20z m489 -274 c4 -18 3 -41 0 -51 -5 -11 -4 -16 3 -12 5 4 15 -15 21 -44
15 -63 15 -72 0 -63 -7 4 -8 3 -4 -5 4 -6 12 -8 18 -5 7 5 9 -2 4 -20 -4 -16
-3 -25 2 -22 5 3 10 -13 10 -35 1 -35 -2 -40 -18 -36 -11 3 -21 0 -23 -6 -2
-6 -13 0 -25 13 -12 13 -19 27 -16 32 3 5 1 15 -6 23 -6 7 -12 29 -13 48 -1
19 -5 33 -8 31 -7 -4 -18 53 -23 119 -3 29 1 40 13 44 9 2 23 8 31 13 24 14
27 12 34 -24z m-99 -63 c4 -21 7 -45 8 -53 1 -9 -19 -23 -53 -37 -30 -12 -46
-23 -35 -23 12 0 37 8 58 19 l37 19 10 -37 c5 -20 10 -42 10 -49 0 -17 -74
-50 -175 -78 -44 -12 -71 -23 -60 -23 31 -1 118 24 180 53 57 26 75 26 75 2 0
-7 11 -23 24 -35 13 -12 27 -36 30 -54 3 -17 26 -81 51 -143 25 -62 45 -117
45 -122 0 -6 -28 -20 -62 -31 -62 -21 -143 -26 -203 -12 -29 7 -28 8 27 25 32
9 60 22 63 27 8 12 7 12 -61 -12 -69 -23 -204 -56 -254 -61 -32 -3 -37 0 -54
36 -26 54 -32 116 -13 152 15 29 18 30 79 28 38 -1 46 0 18 3 -24 2 -50 9 -57
15 -10 8 -13 53 -13 173 0 89 3 176 6 193 9 43 36 49 77 18 42 -32 52 -32 93
-1 22 17 45 25 73 25 22 0 43 5 46 10 12 20 24 9 30 -27z m-335 -198 c0 -107
-3 -195 -7 -195 -10 0 -76 52 -100 80 -12 14 -23 21 -23 15 0 -5 25 -32 55
-61 55 -51 55 -51 40 -80 -19 -38 -19 -49 5 -119 11 -32 18 -60 16 -63 -16
-16 -166 92 -166 119 0 5 -5 9 -10 9 -7 0 -7 -7 0 -21 16 -29 9 -31 -28 -9
-39 24 -41 52 -8 133 13 31 19 57 14 57 -9 0 -3 178 8 230 1 8 3 23 3 33 1 12
10 17 29 18 15 0 56 11 92 23 36 13 68 24 73 25 4 0 7 -87 7 -194z m-222 130
c-3 -42 -10 -37 -14 10 -2 21 1 33 7 30 5 -4 8 -22 7 -40z m1316 -460 c-4 -8
-11 -15 -16 -15 -6 0 -5 6 2 15 7 8 14 15 16 15 2 0 1 -7 -2 -15z m-904 -137
l0 -51 -97 6 c-131 9 -143 13 -143 48 0 28 1 28 48 23 26 -2 74 2 107 9 89 21
85 23 85 -35z m-409 -1679 c35 -25 32 -32 -28 -63 l-46 -23 -38 21 c-22 12
-39 23 -39 26 1 10 85 58 103 59 11 1 32 -8 48 -20z m91 -62 c20 -8 43 -8 85
1 31 6 58 11 59 9 1 -1 5 -16 8 -32 6 -28 3 -33 -49 -64 -42 -26 -62 -32 -85
-28 -16 4 -51 0 -77 -8 -62 -19 -63 -19 -63 5 0 12 -7 35 -16 53 -9 17 -13 33
-8 34 5 2 27 14 49 27 22 13 47 22 55 19 8 -3 27 -10 42 -16z m-213 -11 c45
-24 73 -62 74 -100 0 -19 -2 -38 -6 -42 -13 -13 -154 -17 -190 -5 -64 21 -87
47 -87 97 0 48 -3 46 90 63 52 9 82 6 119 -13z m1047 -22 c12 -15 28 -83 22
-89 -2 -1 -33 -5 -70 -7 l-67 -6 6 52 c3 29 12 56 22 64 19 15 71 7 87 -14z
m-121 -56 c-8 -57 -12 -68 -24 -68 -5 0 -6 21 -4 48 6 60 10 72 24 72 7 0 9
-16 4 -52z m181 46 c14 -4 24 -16 27 -34 4 -15 9 -39 13 -54 l6 -26 -33 14
c-33 14 -44 35 -48 89 -1 18 3 20 35 11z m-740 -56 c-10 -40 -64 -68 -132 -68
-42 0 -85 -9 -145 -31 -48 -18 -104 -31 -130 -31 -60 0 -163 48 -167 78 -3 21
-2 21 50 -5 71 -35 154 -35 260 2 42 15 98 27 125 27 35 0 60 8 93 29 25 16
47 27 49 25 2 -2 1 -13 -3 -26z m760 -64 c37 -18 47 -41 42 -95 -3 -31 -8 -36
-53 -52 -37 -13 -73 -16 -139 -14 -78 3 -91 6 -107 26 -37 45 -21 99 39 130
48 26 168 28 218 5z m42 -161 c-11 -57 -236 -79 -287 -28 -23 22 -11 25 64 14
58 -8 82 -6 140 10 91 24 87 24 83 4z"/>
<path d="M3090 4470 c-41 -7 -102 -35 -202 -93 -59 -34 -73 -39 -89 -29 -23
15 -25 0 -3 -22 17 -17 74 -22 89 -7 20 19 172 90 217 101 39 10 52 10 79 -4
40 -20 45 -16 19 16 -25 33 -65 46 -110 38z"/>
<path d="M2889 4270 l-24 -21 35 17 c43 21 47 24 28 24 -9 0 -26 -9 -39 -20z"/>
<path d="M2930 4259 c-26 -11 -80 -58 -80 -70 0 -4 21 0 48 8 63 20 172 12
235 -17 61 -27 72 -18 27 21 -74 64 -160 86 -230 58z"/>
<path d="M3492 4205 c-33 -37 -48 -89 -38 -129 3 -13 -1 -37 -10 -55 -9 -18
-14 -35 -11 -38 12 -11 38 73 32 104 -10 58 52 154 90 139 9 -3 13 -2 10 4
-12 20 -44 9 -73 -25z"/>
<path d="M3566 3494 c-10 -14 -16 -29 -14 -34 2 -4 11 7 20 26 21 40 17 45 -6
8z"/>
<path d="M3766 3423 c-6 -14 -5 -15 5 -6 7 7 10 15 7 18 -3 3 -9 -2 -12 -12z"/>
<path d="M3803 2905 c0 -38 2 -53 4 -32 2 20 2 52 0 70 -2 17 -4 1 -4 -38z"/>
<path d="M3803 2480 c0 -25 2 -35 4 -22 2 12 2 32 0 45 -2 12 -4 2 -4 -23z"/>
<path d="M3851 3364 c0 -11 3 -14 6 -6 3 7 2 16 -1 19 -3 4 -6 -2 -5 -13z"/>
<path d="M3871 3354 c0 -11 3 -14 6 -6 3 7 2 16 -1 19 -3 4 -6 -2 -5 -13z"/>
<path d="M3901 3014 c0 -11 3 -14 6 -6 3 7 2 16 -1 19 -3 4 -6 -2 -5 -13z"/>
<path d="M3893 2720 c0 -25 2 -35 4 -22 2 12 2 32 0 45 -2 12 -4 2 -4 -23z"/>
<path d="M3175 3090 c-8 -13 5 -13 25 0 13 8 13 10 -2 10 -9 0 -20 -4 -23 -10z"/>
</g>
</svg>
