<?xml version="1.0" standalone="no"?>
<!DOCTYPE svg PUBLIC "-//W3C//DTD SVG 20010904//EN"
 "http://www.w3.org/TR/2001/REC-SVG-20010904/DTD/svg10.dtd">
<svg version="1.0" xmlns="http://www.w3.org/2000/svg"
 width="626.000000pt" height="626.000000pt" viewBox="0 0 626.000000 626.000000"
 preserveAspectRatio="xMidYMid meet">

<g transform="translate(0.000000,626.000000) scale(0.100000,-0.100000)"
fill="#000000" stroke="none">
<path d="M2551 5834 c-175 -29 -354 -103 -517 -212 -219 -148 -349 -337 -403
-586 -34 -157 -27 -293 25 -501 l25 -100 -57 -85 c-103 -154 -204 -392 -204
-478 0 -51 26 -117 56 -144 11 -9 46 -29 79 -44 84 -39 220 -44 362 -15 55 12
104 21 107 21 13 0 5 -59 -11 -71 -36 -31 -46 -80 -50 -249 l-4 -165 -45 -90
c-57 -115 -62 -143 -34 -173 12 -13 40 -60 61 -103 44 -89 60 -101 158 -113
30 -4 62 -11 71 -16 24 -13 14 -57 -17 -77 -21 -14 -24 -22 -18 -49 4 -26 -3
-50 -40 -124 -48 -94 -50 -113 -15 -145 15 -13 17 -22 9 -42 -7 -20 -5 -33 11
-60 l20 -34 -21 -61 c-33 -98 -35 -146 -9 -230 16 -51 23 -103 25 -173 1 -62
12 -147 29 -225 15 -69 29 -167 33 -218 l6 -93 -33 -34 c-29 -30 -32 -38 -26
-72 4 -21 9 -56 11 -77 2 -24 14 -49 29 -65 21 -22 31 -54 55 -169 30 -150 28
-172 -15 -178 -35 -5 -101 -15 -125 -19 -13 -2 -44 -6 -69 -9 -62 -8 -137 -26
-185 -44 -36 -13 -189 -58 -224 -66 -8 -1 -17 -8 -19 -14 -2 -7 -10 -12 -18
-12 -17 0 -18 -19 -1 -41 25 -33 169 -69 352 -89 61 -6 128 -14 150 -17 71
-10 846 -12 955 -2 257 23 451 61 491 96 21 18 203 29 699 43 346 10 571 25
740 50 125 18 234 41 260 55 l25 13 -41 11 c-22 6 -107 15 -188 20 -95 6 -151
14 -156 21 -8 13 -22 87 -184 940 -206 1084 -211 1115 -192 1154 24 51 22 166
-4 199 l-20 25 97 22 c182 40 182 40 183 88 1 9 15 26 33 37 18 11 45 45 62
75 26 47 30 65 29 125 -2 95 -31 156 -96 199 -24 16 -27 25 -30 84 l-3 67 -85
42 c-47 23 -93 42 -102 43 -15 0 -18 9 -18 49 0 73 -4 75 -188 67 -224 -10
-212 -6 -256 -82 -34 -59 -39 -64 -71 -64 -35 0 -85 -18 -85 -30 0 -4 -21 -11
-47 -15 -88 -13 -83 -1 -83 -220 0 -187 -1 -194 -21 -209 -13 -9 -25 -31 -28
-51 -6 -35 -10 -38 -81 -66 -71 -28 -77 -29 -108 -14 -25 11 -38 12 -53 5 -14
-8 -25 -7 -40 3 -11 8 -29 13 -39 10 -34 -9 -130 131 -130 191 0 17 -15 37
-50 66 -27 23 -50 48 -50 55 0 15 -61 60 -128 94 -24 12 -42 24 -40 27 3 2 31
9 64 15 185 33 358 121 462 233 52 57 68 89 77 156 6 45 15 63 46 98 63 67 76
130 40 187 l-18 30 36 41 c20 22 41 48 46 57 9 16 16 13 68 -23 31 -22 60 -40
63 -40 3 0 -15 23 -40 51 -26 29 -44 54 -42 56 3 3 24 -8 48 -24 69 -47 71
-48 60 -26 -7 13 -7 33 0 64 17 75 4 243 -27 333 -14 43 -25 80 -23 81 2 2 28
-3 58 -11 66 -17 227 -27 235 -15 3 5 -9 13 -27 16 -55 12 -154 61 -233 116
-41 28 -75 53 -75 54 0 1 5 17 11 34 10 29 9 37 -11 63 -20 27 -22 38 -16 98
6 68 6 68 -23 80 -17 6 -35 25 -42 42 -21 51 -89 150 -149 219 l-58 66 5 139
c3 76 3 137 0 134 -2 -3 -12 -40 -21 -83 -8 -42 -23 -91 -31 -107 l-16 -30
-72 49 c-139 94 -294 156 -461 186 -108 18 -291 18 -405 -1z m826 -859 c14
-57 39 -220 48 -310 l5 -60 -37 -20 c-20 -11 -47 -35 -61 -53 l-25 -33 50 26
c73 36 76 35 70 -32 -3 -32 -9 -59 -14 -60 -25 -9 -73 -44 -73 -54 0 -8 7 -6
18 4 10 9 33 22 50 28 18 6 30 14 27 19 -3 6 39 126 49 137 0 1 14 5 29 8 l28
7 -7 -63 c-7 -60 -6 -63 10 -50 10 8 33 44 51 80 l34 66 1 -116 0 -117 -42 15
c-89 31 -200 -8 -296 -104 -30 -29 -52 -56 -50 -58 3 -3 16 -6 29 -7 24 -2 25
-4 21 -60 -6 -80 4 -122 37 -157 39 -41 79 -41 125 -1 69 61 94 206 48 284
-26 44 -26 46 -7 46 31 0 72 -30 85 -61 13 -31 14 -31 22 -9 5 13 6 30 3 37
-3 9 0 11 6 7 16 -10 4 -110 -21 -176 -24 -63 -24 -64 -5 -48 13 11 14 -2 9
-101 -7 -145 -15 -169 -75 -229 -116 -116 -274 -191 -461 -220 -65 -9 -92 -9
-163 5 -238 44 -499 181 -630 328 -49 56 -73 72 -61 42 7 -20 -16 -19 -85 1
-110 33 -212 102 -245 165 -8 16 -14 52 -14 80 0 104 70 189 155 189 53 0 134
-39 169 -81 40 -47 53 -53 81 -35 22 14 24 14 34 -12 6 -15 20 -40 31 -57 l19
-29 -6 70 -6 70 46 37 46 38 -19 -43 c-40 -89 -15 -200 58 -256 48 -37 140
-39 190 -4 66 48 96 167 61 247 -7 17 -14 42 -16 58 -3 27 -3 27 27 12 16 -8
54 -36 85 -60 61 -50 68 -49 28 3 -27 36 -16 35 25 -1 45 -41 20 4 -30 55 -29
28 -44 48 -33 44 45 -18 49 -17 20 3 -16 11 -52 28 -79 37 l-49 17 6 80 c4 44
9 82 12 85 7 7 82 -28 124 -58 63 -45 64 -45 47 -5 -28 65 -53 93 -94 100 -62
10 -67 16 -53 71 6 27 23 88 37 135 l26 86 72 16 c132 31 326 55 430 53 l60
-1 13 -50z m-761 -282 c-2 -3 -11 -3 -19 -1 -12 3 -12 10 2 53 l16 50 3 -49
c2 -26 1 -50 -2 -53z m923 -45 c1 -45 -1 -48 -25 -48 -21 0 -25 4 -19 18 3 9
12 53 18 97 l12 80 7 -50 c3 -27 7 -71 7 -97z m-916 -56 c4 -42 9 -87 13 -98
5 -20 1 -22 -48 -26 -29 -2 -55 -3 -57 -1 -5 4 27 155 39 189 6 16 15 21 28
17 16 -4 20 -17 25 -81z m-219 -68 c7 -27 16 -59 20 -71 6 -19 1 -25 -35 -43
l-42 -22 7 44 c10 68 29 149 33 144 2 -2 10 -26 17 -52z m1477 -87 c12 -37 19
-70 17 -73 -6 -5 -74 130 -84 166 l-6 25 26 -25 c17 -15 35 -50 47 -93z
m-1502 -74 c-18 -21 -35 -40 -36 -42 -2 -2 -3 8 -3 22 0 18 8 31 28 41 44 25
48 18 11 -21z m287 29 c6 -4 17 -18 24 -32 l13 -25 -24 21 c-13 12 -33 26 -44
32 l-20 11 20 1 c11 0 25 -4 31 -8z m957 -19 c4 -2 7 -16 7 -30 l0 -27 -27 26
c-16 14 -37 31 -48 37 -17 9 -13 10 20 5 22 -4 43 -9 48 -11z m77 -244 c0 -30
-25 -82 -50 -104 l-23 -20 6 60 c3 33 12 75 18 94 l12 34 19 -22 c10 -13 18
-32 18 -42z m-1056 10 c34 -27 32 -68 -4 -87 -38 -20 -136 -11 -161 15 -64 63
91 130 165 72z m785 -63 c7 -8 11 -27 9 -43 -2 -22 -9 -29 -31 -31 -30 -4 -77
21 -77 40 0 39 74 64 99 34z m-1279 -352 c15 -37 14 -39 -35 -50 l-45 -10 0
42 c0 68 57 81 80 18z m84 -16 c6 5 33 17 60 26 l49 16 76 -49 c42 -26 96 -59
121 -71 43 -23 44 -24 20 -31 -14 -4 -41 -7 -60 -8 -19 -1 -49 -9 -65 -19 -55
-34 -84 -33 -116 2 -16 17 -29 39 -29 48 0 22 -47 58 -76 58 -17 0 -24 6 -24
19 0 11 -3 28 -6 38 -3 11 3 7 16 -10 15 -18 26 -25 34 -19z m2217 10 c2 -30
0 -70 -3 -73 -6 -6 -184 -25 -226 -25 l-43 0 3 48 3 47 105 11 c161 17 160 17
161 -8z m-2200 -89 c6 -11 -2 -16 -33 -21 -23 -4 -49 -15 -57 -23 -15 -15 -14
-15 11 -6 35 13 92 3 117 -21 32 -29 26 -45 -18 -52 -22 -3 -43 -11 -47 -17
-4 -8 3 -9 24 -4 44 9 91 -18 92 -54 0 -9 -8 -12 -26 -8 -25 4 -24 3 11 -33
28 -29 35 -43 30 -59 -8 -25 -58 -65 -100 -78 -29 -10 -30 -11 -30 -74 0 -35
3 -97 5 -138 l5 -75 -50 -38 c-27 -21 -59 -38 -71 -38 -26 0 -111 56 -125 81
-7 14 -7 61 0 151 6 73 11 188 11 257 0 70 5 142 10 162 20 71 94 112 189 105
24 -2 47 -10 52 -17z m1797 -21 c46 -14 27 -28 -25 -19 -24 5 -40 4 -37 0 6
-11 -8 -12 -31 -2 -15 5 -15 7 5 18 28 15 47 16 88 3z m-1313 -58 c39 -13 94
-29 124 -35 53 -10 55 -12 57 -45 2 -52 4 -56 13 -41 7 11 13 7 25 -17 23 -45
21 -50 -26 -63 -95 -25 -181 -6 -236 54 -30 32 -82 142 -82 173 0 23 1 24 28
11 15 -8 59 -25 97 -37z m-301 -137 c10 -60 20 -147 23 -195 6 -85 5 -88 -23
-120 -16 -19 -36 -44 -45 -57 l-15 -24 -36 64 c-20 35 -48 75 -62 88 -35 33
-33 44 13 65 56 24 104 81 97 115 -3 14 -9 47 -14 73 -5 26 -14 54 -21 62 -11
13 -11 17 0 20 8 2 21 7 29 9 33 11 37 4 54 -100z m1866 38 c0 -25 -4 -29 -37
-35 -21 -3 -55 -6 -75 -6 -35 0 -38 2 -38 29 0 34 9 38 93 40 56 1 57 1 57
-28z m357 -83 c51 -54 59 -154 18 -225 -27 -44 -73 -77 -98 -67 -8 3 -23 17
-34 32 -62 85 -56 211 14 284 24 25 28 26 52 13 14 -7 36 -24 48 -37z m-1909
-42 c56 -28 121 -28 218 0 18 5 23 0 32 -38 16 -66 39 -238 51 -388 49 -601
62 -723 83 -762 6 -13 21 -18 48 -18 22 0 40 -4 40 -9 0 -28 -209 -151 -257
-151 -12 0 -106 24 -210 54 -103 29 -213 56 -243 60 l-55 6 55 -22 55 -23
-108 -9 c-107 -8 -108 -8 -146 18 -46 32 -191 189 -191 206 0 7 18 -4 40 -23
21 -20 57 -46 80 -57 22 -11 50 -30 60 -40 22 -22 68 -25 205 -13 l77 6 44 91
c43 88 44 96 58 251 30 329 48 798 32 848 -9 31 -6 32 32 13z m517 -129 c4
-34 12 -80 18 -102 l11 -40 5 38 6 37 36 -48 36 -49 -29 -34 c-42 -49 -58 -91
-59 -156 l-1 -58 -14 58 c-7 32 -23 127 -34 211 -11 84 -23 175 -26 202 l-7
49 26 -23 c20 -19 27 -37 32 -85z m-977 -91 c13 -19 34 -61 47 -93 l24 -58
-37 -69 c-20 -38 -53 -86 -72 -108 l-35 -39 -95 16 c-103 18 -114 23 -137 69
l-16 30 27 -18 c27 -17 27 -17 16 4 -6 12 -34 46 -62 77 -54 60 -56 72 -24
144 l14 34 1 -56 c1 -76 36 -122 129 -170 41 -21 44 -22 77 -6 44 21 112 83
131 118 17 34 18 60 2 57 -8 -2 -15 15 -18 50 -3 28 -3 52 0 52 3 0 16 -16 28
-34z m1520 -144 c8 -13 31 -32 53 -41 l39 -18 -186 -91 c-102 -51 -188 -92
-190 -92 -3 0 -11 15 -18 33 -15 35 -8 109 17 181 12 36 19 41 106 77 51 22
97 39 101 39 5 0 12 -10 15 -21 9 -29 25 -6 25 36 0 17 4 41 8 55 5 18 8 1 12
-55 3 -44 11 -91 18 -103z m-363 57 c4 -5 -1 -19 -11 -30 -28 -31 -12 -31 36
1 45 30 94 44 58 17 -17 -13 -51 -112 -63 -180 -8 -49 9 -101 42 -127 26 -20
69 -28 58 -11 -3 6 4 15 15 21 23 12 24 9 9 -42 l-10 -38 -77 0 c-47 0 -72 -4
-63 -9 10 -6 10 -10 1 -16 -14 -9 -43 17 -83 74 -27 39 -30 54 -35 137 -5 102
-1 113 73 187 30 29 40 33 50 16z m531 -237 c1 -56 6 -103 14 -117 15 -28 19
-3 -75 -495 -31 -162 -70 -369 -86 -460 -44 -237 -188 -999 -198 -1040 -8 -35
-8 -35 -18 -10 -12 27 -39 54 -65 63 -10 3 -18 19 -20 39 -2 25 -9 34 -28 38
-22 5 -26 13 -37 80 -18 116 -16 147 12 184 29 38 31 58 10 115 -8 23 -12 54
-9 70 5 24 0 33 -35 60 -22 18 -40 35 -39 39 5 17 -15 193 -27 247 -7 33 -43
152 -79 265 -42 131 -62 208 -56 214 6 6 10 20 10 32 0 17 12 26 58 42 31 12
69 32 85 44 24 21 26 26 18 58 -10 37 -33 211 -36 272 -1 21 -9 46 -18 56 -17
18 -23 42 -11 42 3 0 19 -11 36 -25 34 -29 48 -31 88 -10 16 8 47 14 70 13 52
-2 66 13 89 88 l17 59 145 68 c79 37 153 66 164 65 18 -3 20 -11 21 -96z m191
-170 l23 -7 6 -970 c3 -544 2 -987 -3 -1010 l-9 -39 -54 2 c-30 2 -98 7 -150
12 -52 5 -130 12 -172 16 l-78 6 0 32 c0 18 41 246 90 507 50 261 131 688 181
949 49 261 92 483 95 493 5 17 30 21 71 9z m197 -9 c3 -10 17 -81 31 -158 14
-77 37 -194 50 -260 21 -99 277 -1453 299 -1577 l7 -38 -169 0 c-93 0 -197 3
-231 6 l-61 7 0 1012 c0 556 3 1015 7 1018 14 15 62 7 67 -10z m-1451 -1206
c3 -29 12 -79 19 -112 13 -56 13 -62 -6 -97 -20 -35 -20 -39 -5 -64 13 -20 14
-36 7 -72 -10 -56 -3 -65 72 -89 l55 -18 54 -108 c41 -83 51 -110 42 -121 -8
-10 -8 -21 -1 -41 6 -15 8 -30 6 -33 -3 -2 -94 -7 -203 -9 -109 -3 -233 -8
-275 -12 -61 -5 -79 -4 -83 7 -7 18 -6 85 2 150 5 49 9 55 44 73 34 17 39 24
40 57 1 20 1 41 0 45 -1 5 10 22 24 39 14 16 25 35 25 43 0 7 -16 36 -36 65
l-36 53 7 86 c5 59 13 96 27 119 18 30 21 55 25 220 3 103 7 194 9 202 3 8 44
-60 93 -158 66 -129 90 -186 94 -225z m518 -502 l14 -95 -35 -11 c-19 -7 -48
-22 -63 -35 -30 -25 -44 -27 -114 -16 -42 7 -43 8 -88 101 -42 87 -44 93 -23
87 13 -4 59 -10 103 -13 l80 -6 50 41 c28 22 52 41 56 41 3 1 12 -42 20 -94z
m-1057 -101 l53 -24 68 21 c37 11 68 19 69 17 2 -2 1 -47 -2 -100 l-4 -98 -53
0 c-42 0 -60 -5 -83 -25 -37 -31 -59 -31 -103 -2 -31 21 -35 31 -56 122 -12
55 -25 117 -29 139 l-6 38 46 -31 c26 -18 71 -43 100 -57z"/>
<path d="M2721 4496 c2 -2 33 -18 69 -36 58 -29 63 -30 45 -10 -21 24 -74 50
-101 50 -10 0 -15 -2 -13 -4z"/>
<path d="M1931 4194 c-38 -31 -42 -54 -5 -25 56 44 134 17 134 -45 0 -37 19
-83 44 -103 10 -9 9 -2 -5 26 -33 64 -21 103 18 56 29 -36 29 -19 0 32 -46 82
-128 108 -186 59z"/>
<path d="M2866 3816 c-59 -22 -68 -44 -40 -99 47 -93 137 -132 213 -93 29 16
102 90 120 124 10 18 8 24 -11 36 -57 36 -221 55 -282 32z m229 -25 l30 -8
-26 -11 c-30 -12 -120 2 -159 24 -23 14 -19 15 50 10 41 -3 89 -10 105 -15z
m-159 -12 c56 -27 147 -36 179 -19 38 21 38 7 0 -42 -45 -60 -91 -88 -144 -88
-52 0 -85 21 -116 75 -30 49 -31 70 -7 84 25 15 41 13 88 -10z"/>
<path d="M4595 3275 c-43 -60 -60 -96 -25 -55 38 46 81 110 73 110 -4 0 -26
-25 -48 -55z"/>
<path d="M4643 3246 c-15 -19 -36 -50 -46 -68 -18 -32 -18 -32 18 7 34 38 71
95 61 95 -3 0 -17 -15 -33 -34z"/>
<path d="M2778 2571 c25 -12 139 -17 149 -8 3 4 -12 7 -34 7 -22 0 -62 2 -89
5 -38 4 -44 3 -26 -4z"/>
<path d="M2863 2498 c-73 -40 -131 -74 -129 -76 6 -5 216 104 246 128 14 11
23 20 20 20 -3 0 -64 -33 -137 -72z"/>
<path d="M2915 2138 c-43 -14 -77 -18 -120 -15 -38 3 -51 2 -35 -3 45 -15 115
-10 178 11 59 20 77 30 50 28 -7 -1 -40 -10 -73 -21z"/>
</g>
</svg>
